# Blender 3.6.5
# www.blender.org
mtllib character.mtl
o Cube.001
v -0.640478 -0.015049 0.295690
v -0.640478 0.410798 0.295690
v -0.640478 -0.015049 -0.247853
v -0.640478 0.410798 -0.247853
v 0.738553 -0.015049 0.295690
v 0.738553 0.410798 0.295690
v 0.738553 -0.015049 -0.247853
v 0.738553 0.410798 -0.247853
v 0.738553 2.730241 0.295690
v -0.640478 2.730241 0.295690
v -0.640478 2.730241 -0.247853
v 0.738553 2.730241 -0.247853
v 0.738553 2.730241 0.295690
v 1.590522 3.618969 -0.198803
v 1.590522 3.618969 0.344739
v 1.590522 2.057014 -0.198803
v 1.590522 2.057014 0.344739
v -1.419660 3.737463 0.309125
v -1.419660 3.737463 -0.234418
v -1.419660 2.175507 0.309125
v -1.419660 2.175507 -0.234418
v -0.190123 4.292195 0.167003
v -0.758080 4.208470 0.295690
v -0.190123 4.292196 -0.119166
v -0.745280 4.190534 -0.246046
v 0.288198 4.292199 -0.119166
v 0.839187 4.187964 -0.242059
v 0.288198 4.292196 0.167003
v 0.839187 4.187959 0.301484
v -0.347486 4.458766 0.445825
v -0.347486 4.458766 -0.397992
v 0.445560 4.458769 -0.397992
v 0.445560 4.458767 0.445825
v -0.347489 5.041550 0.445834
v -0.347489 5.041550 -0.397983
v 0.445556 5.041553 -0.397983
v 0.445556 5.041551 0.445834
vn -1.0000 -0.0000 -0.0000
vn -0.0000 -0.0000 -1.0000
vn 1.0000 -0.0000 -0.0000
vn -0.0000 -0.0000 1.0000
vn -0.0000 -1.0000 -0.0000
vn 0.0181 0.0007 0.9998
vn -0.0020 -0.0020 1.0000
vn 0.4002 0.9164 -0.0000
vn 0.0575 -0.0000 -0.9983
vn -0.6200 -0.7846 -0.0000
vn -0.0575 -0.0000 0.9983
vn 0.6037 0.7972 -0.0000
vn 0.5800 -0.8146 -0.0000
vn 0.0013 0.0026 -1.0000
vn -0.5690 0.8221 -0.0203
vn -0.0172 -0.0000 -0.9999
vn -0.1629 0.9864 -0.0239
vn 0.1859 0.9826 -0.0000
vn 0.0064 0.8135 0.5815
vn 0.0022 0.7716 -0.6361
vn 0.7269 -0.6867 -0.0000
vn -0.7269 -0.6867 -0.0000
vn -0.0000 -0.8585 -0.5129
vn -0.0000 -0.8585 0.5129
vn -0.0000 1.0000 -0.0000
vt 0.821429 0.898587
vt 0.821429 0.832124
vt 0.906261 0.832124
vt 0.906261 0.898587
vt 0.121591 0.656376
vt 0.121591 0.589913
vt 0.336815 0.589913
vt 0.336815 0.656376
vt 0.991093 0.470123
vt 0.991093 0.536586
vt 0.906261 0.536586
vt 0.906261 0.470123
vt 0.477122 0.656122
vt 0.477975 0.589664
vt 0.693181 0.592427
vt 0.692327 0.658885
vt 0.387515 0.656376
vt 0.387515 0.871605
vt 0.302682 0.871605
vt 0.302682 0.656376
vt 0.697829 0.230456
vt 0.719144 0.000000
vt 0.821429 0.074830
vt 0.818299 0.318588
vt 0.482623 0.227693
vt 0.469834 0.000000
vt 0.991093 0.898587
vt 0.906261 0.898587
vt 0.821429 0.470123
vt 0.906261 0.470123
vt 0.910993 0.357602
vt 0.915187 0.143680
vt 0.910993 -0.000000
vt 0.995806 0.001719
vt 1.000000 0.145400
vt 0.121591 0.227912
vt 0.336815 0.227912
vt 0.217851 0.656376
vt 0.302682 0.900154
vt 0.217851 0.900154
vt 0.352527 0.000402
vt 0.469834 0.089203
vt 0.469834 0.332982
vt 0.554525 0.792074
vt 0.469834 0.796949
vt 0.469834 0.663760
vt 0.554526 0.658885
vt 0.117306 0.656376
vt 0.133018 0.883886
vt 0.000000 0.988957
vt 0.000000 0.745179
vt 0.217851 0.900155
vt 0.133018 0.900155
vt 0.133018 0.656376
vt 0.217851 0.656376
vt 0.826169 0.126258
vt 0.821429 -0.000000
vt 0.906253 0.001041
vt 0.910993 0.127299
vt 0.387502 0.994694
vt 0.302682 0.993232
vt 0.302682 0.871605
vt 0.387502 0.873067
vt 0.105237 0.000000
vt 0.824173 0.374422
vt 0.908759 0.373171
vt 0.906253 0.470123
vt 0.821429 0.469081
vt -0.000000 0.314489
vt 0.000000 0.070711
vt 0.845182 0.287967
vt 0.889840 0.288515
vt 0.890702 0.214307
vt 0.846043 0.213759
vt 0.794524 0.702403
vt 0.794523 0.747066
vt 0.768527 0.790583
vt 0.768527 0.658886
vt 0.677570 0.790581
vt 0.677570 0.658885
vt 0.677570 0.878764
vt 0.677570 0.834101
vt 0.703567 0.790584
vt 0.703567 0.922281
vt 0.387515 0.755589
vt 0.387515 0.680936
vt 0.431032 0.656376
vt 0.431032 0.780149
vt 0.431031 0.804709
vt 0.431031 0.879362
vt 0.387515 0.903922
vt 0.387515 0.780149
vt 0.554526 0.658967
vt 0.677570 0.658885
vt 0.677570 0.790579
vt 0.554526 0.790661
vt 0.554526 0.914431
vt 0.554525 0.790661
vt 0.645482 0.790662
vt 0.645482 0.914431
vt 0.794524 0.790583
vt 0.794524 0.922279
vt 0.554525 0.796949
vt 0.554525 0.920719
vt 0.463569 0.920719
vt 0.463569 0.796950
s 0
usemtl Material.002
f 1/1/1 2/2/1 4/3/1 3/4/1
f 3/5/2 4/6/2 8/7/2 7/8/2
f 7/9/3 8/10/3 6/11/3 5/12/3
f 5/13/4 6/14/4 2/15/4 1/16/4
f 3/17/5 7/18/5 5/19/5 1/20/5
f 10/21/6 23/22/6 18/23/6 20/24/6
f 23/22/7 10/21/7 9/25/7 29/26/7
f 6/11/3 8/10/3 12/27/3 13/28/3 9/28/3
f 2/15/4 6/14/4 9/25/4 10/21/4
f 4/3/1 2/2/1 10/29/1 11/30/1
f 10/31/8 9/32/8 13/32/8 17/33/8 16/34/8 12/35/8
f 8/7/2 4/6/2 11/36/2 12/37/2
f 17/38/3 16/20/3 14/39/3 15/40/3
f 12/37/9 27/41/9 14/42/9 16/43/9
f 13/44/10 12/45/10 16/46/10 17/47/10
f 29/48/11 13/49/11 17/50/11 15/51/11
f 21/52/1 20/53/1 18/54/1 19/55/1
f 29/56/12 15/57/12 14/58/12 27/59/12
f 11/60/13 10/61/13 20/62/13 21/63/13
f 25/64/14 27/41/14 12/37/14 11/36/14
f 23/65/15 25/66/15 19/67/15 18/68/15
f 25/64/16 11/36/16 21/69/16 19/70/16
f 22/71/17 24/72/17 25/66/17 23/65/17
f 26/73/18 28/74/18 29/56/18 27/59/18
f 28/74/19 22/71/19 23/65/19 29/56/19
f 24/72/20 26/73/20 27/59/20 25/66/20
f 28/75/21 26/76/21 32/77/21 33/78/21
f 33/78/3 32/77/3 36/79/3 37/80/3
f 24/81/22 22/82/22 30/83/22 31/84/22
f 26/85/23 24/86/23 31/87/23 32/88/23
f 22/89/24 28/90/24 33/91/24 30/92/24
f 34/93/25 37/94/25 36/95/25 35/96/25
f 30/97/4 33/98/4 37/99/4 34/100/4
f 31/84/1 30/83/1 34/101/1 35/102/1
f 32/103/2 31/104/2 35/105/2 36/106/2
