# Blender 3.6.5
# www.blender.org
mtllib character.mtl
o Cube
v -0.640478 -0.015049 0.295690
v -0.640478 0.410798 0.295690
v -0.640478 -0.015049 -0.247853
v -0.640478 0.410798 -0.247853
v 0.738553 -0.015049 0.295690
v 0.738553 0.410798 0.295690
v 0.738553 -0.015049 -0.247853
v 0.738553 0.410798 -0.247853
v 0.738553 2.730241 0.295690
v -0.640478 2.730241 0.295690
v -0.640478 2.730241 -0.247853
v 0.738553 2.730241 -0.247853
v 0.738553 2.730241 0.295690
v 1.590522 3.618969 -0.198803
v 1.590522 3.618969 0.344739
v 1.590522 2.057014 -0.198803
v 1.590522 2.057014 0.344739
v -1.419660 3.737463 0.309125
v -1.419660 3.737463 -0.234418
v -1.419660 2.175507 0.309125
v -1.419660 2.175507 -0.234418
v -0.190123 4.292195 0.167003
v -0.758080 4.208470 0.295690
v -0.190123 4.292196 -0.119166
v -0.745280 4.190534 -0.246046
v 0.288198 4.292199 -0.119166
v 0.839187 4.187964 -0.242059
v 0.288198 4.292196 0.167003
v 0.839187 4.187959 0.301484
v -0.347486 4.458766 0.445825
v -0.347486 4.458766 -0.397992
v 0.445560 4.458769 -0.397992
v 0.445560 4.458767 0.445825
v -0.347489 5.041550 0.445834
v -0.347489 5.041550 -0.397983
v 0.445556 5.041553 -0.397983
v 0.445556 5.041551 0.445834
vn -1.0000 -0.0000 -0.0000
vn -0.0000 -0.0000 -1.0000
vn 1.0000 -0.0000 -0.0000
vn -0.0000 -0.0000 1.0000
vn -0.0000 -1.0000 -0.0000
vn 0.0181 0.0007 0.9998
vn -0.0020 -0.0020 1.0000
vn 0.4002 0.9164 -0.0000
vn 0.0575 -0.0000 -0.9983
vn -0.6200 -0.7846 -0.0000
vn -0.0575 -0.0000 0.9983
vn 0.6037 0.7972 -0.0000
vn 0.5800 -0.8146 -0.0000
vn 0.0013 0.0026 -1.0000
vn -0.5690 0.8221 -0.0203
vn -0.0172 -0.0000 -0.9999
vn -0.1629 0.9864 -0.0239
vn 0.1859 0.9826 -0.0000
vn 0.0064 0.8135 0.5815
vn 0.0022 0.7716 -0.6361
vn 0.7269 -0.6867 -0.0000
vn -0.7269 -0.6867 -0.0000
vn -0.0000 -0.8585 -0.5129
vn -0.0000 -0.8585 0.5129
vn -0.0000 1.0000 -0.0000
vt 0.375000 0.000000
vt 0.625000 0.000000
vt 0.625000 0.250000
vt 0.375000 0.250000
vt 0.625000 0.500000
vt 0.375000 0.500000
vt 0.625000 0.750000
vt 0.375000 0.750000
vt 0.625000 1.000000
vt 0.375000 1.000000
vt 0.125000 0.500000
vt 0.125000 0.750000
vt 0.723389 0.577520
vt 0.806890 0.863583
vt 0.376969 0.864715
vt 0.386747 0.562338
vt 0.716446 0.610457
vt 0.429676 0.636892
vt 0.436436 0.861635
vt 0.769549 0.852550
vt 0.626076 0.614164
vt 0.718421 0.754719
vt 0.471262 0.716694
vt 0.461303 0.586325
vt 0.625000 0.749682
vt 0.625000 0.499682
vt 0.749865 0.826092
vt 0.494448 0.857918
vt 0.418307 0.709277
vt 0.505118 0.600344
vt 0.875000 0.749067
vt 0.875000 0.499899
vt 0.875000 0.500000
vt 0.875000 0.750000
vt 0.625499 0.552840
vt 0.536569 0.435788
vt 0.581917 0.418561
vt 0.647290 0.388967
vt 0.812586 0.643909
vt 0.832433 0.536103
vt 0.519595 0.404708
vt 0.210387 0.165280
vt 0.000000 0.000000
vt 0.618337 0.494670
vt 0.903212 0.808499
vt 0.004365 0.010468
vt 0.614330 0.507574
vt 0.869747 0.475748
vt 0.884928 0.271862
vt 0.281679 0.243794
vt 0.298215 0.575536
vt 0.873560 0.573375
vt 0.194054 0.235736
vt 0.941980 0.343879
vt 0.913043 0.622914
vt 0.303601 0.545000
s 0
usemtl Material.002
f 1/1/1 2/2/1 4/3/1 3/4/1
f 3/4/2 4/3/2 8/5/2 7/6/2
f 7/6/3 8/5/3 6/7/3 5/8/3
f 5/8/4 6/7/4 2/9/4 1/10/4
f 3/11/5 7/6/5 5/8/5 1/12/5
f 10/9/6 23/9/6 18/9/6 20/9/6
f 23/13/7 10/14/7 9/15/7 29/16/7
f 6/7/3 8/5/3 12/5/3 13/7/3 9/7/3
f 2/17/4 6/18/4 9/19/4 10/20/4
f 4/3/1 2/2/1 10/2/1 11/3/1
f 10/9/8 9/7/8 13/7/8 17/7/8 16/5/8 12/5/8
f 8/5/2 4/3/2 11/3/2 12/5/2
f 17/7/3 16/5/3 14/5/3 15/7/3
f 12/21/9 27/22/9 14/23/9 16/24/9
f 13/7/10 12/5/10 16/5/10 17/7/10
f 29/7/11 13/7/11 17/7/11 15/7/11
f 21/3/1 20/2/1 18/2/1 19/3/1
f 29/25/12 15/7/12 14/5/12 27/26/12
f 11/3/13 10/2/13 20/2/13 21/3/13
f 25/27/14 27/28/14 12/29/14 11/30/14
f 23/31/15 25/32/15 19/33/15 18/34/15
f 25/35/16 11/36/16 21/37/16 19/38/16
f 22/39/17 24/40/17 25/32/17 23/31/17
f 26/41/18 28/42/18 29/43/18 27/44/18
f 28/42/19 22/39/19 23/45/19 29/46/19
f 24/40/20 26/41/20 27/47/20 25/48/20
f 28/42/21 26/41/21 32/41/21 33/42/21
f 33/42/3 32/41/3 36/41/3 37/42/3
f 24/40/22 22/39/22 30/39/22 31/40/22
f 26/41/23 24/40/23 31/40/23 32/41/23
f 22/39/24 28/42/24 33/42/24 30/39/24
f 34/39/25 37/42/25 36/41/25 35/40/25
f 30/49/4 33/50/4 37/51/4 34/52/4
f 31/40/1 30/39/1 34/39/1 35/40/1
f 32/53/2 31/54/2 35/55/2 36/56/2
