# Blender 4.1.1
# www.blender.org
mtllib walls.mtl
o Plane
v -23.421865 0.000000 23.421865
v 23.421865 0.000000 23.421865
v -23.421865 0.000000 -23.421865
v 23.421865 0.000000 -23.421865
vn -0.0000 1.0000 -0.0000
vt 1.000000 0.000000
vt 0.000000 1.000000
vt 0.000000 0.000000
vt 1.000000 1.000000
s 0
usemtl Material
f 2/1/1 3/2/1 1/3/1
f 2/1/1 4/4/1 3/2/1
o Cube
v -0.488600 0.000000 3.645957
v -0.488600 2.000000 3.645957
v -0.488600 0.000000 -8.705492
v -0.488600 2.000000 -8.705492
v 0.453331 0.000000 3.645957
v 0.453331 2.000000 3.645957
v 0.453331 0.000000 -8.705492
v 0.453331 2.000000 -8.705492
vn -1.0000 -0.0000 -0.0000
vn -0.0000 -0.0000 -1.0000
vn 1.0000 -0.0000 -0.0000
vn -0.0000 -0.0000 1.0000
vn -0.0000 -1.0000 -0.0000
vn -0.0000 1.0000 -0.0000
vt 0.625000 0.000000
vt 0.375000 0.250000
vt 0.375000 0.000000
vt 0.625000 0.250000
vt 0.375000 0.500000
vt 0.625000 0.500000
vt 0.375000 0.750000
vt 0.625000 0.750000
vt 0.375000 1.000000
vt 0.125000 0.750000
vt 0.125000 0.500000
vt 0.875000 0.500000
vt 0.625000 1.000000
vt 0.875000 0.750000
s 0
usemtl Material.002
f 6/5/2 7/6/2 5/7/2
f 8/8/3 11/9/3 7/6/3
f 12/10/4 9/11/4 11/9/4
f 10/12/5 5/13/5 9/11/5
f 11/9/6 5/14/6 7/15/6
f 8/16/7 10/12/7 12/10/7
f 6/5/2 8/8/2 7/6/2
f 8/8/3 12/10/3 11/9/3
f 12/10/4 10/12/4 9/11/4
f 10/12/5 6/17/5 5/13/5
f 11/9/6 9/11/6 5/14/6
f 8/16/7 6/18/7 10/12/7
o Cube.001
v -6.825408 0.000000 21.290401
v -6.825408 2.000000 21.290401
v -6.825408 0.000000 8.938952
v -6.825408 2.000000 8.938952
v -5.883477 0.000000 21.290401
v -5.883477 2.000000 21.290401
v -5.883477 0.000000 8.938952
v -5.883477 2.000000 8.938952
vn -1.0000 -0.0000 -0.0000
vn -0.0000 -0.0000 -1.0000
vn 1.0000 -0.0000 -0.0000
vn -0.0000 -0.0000 1.0000
vn -0.0000 -1.0000 -0.0000
vn -0.0000 1.0000 -0.0000
vt 0.625000 0.000000
vt 0.375000 0.250000
vt 0.375000 0.000000
vt 0.625000 0.250000
vt 0.375000 0.500000
vt 0.625000 0.500000
vt 0.375000 0.750000
vt 0.625000 0.750000
vt 0.375000 1.000000
vt 0.125000 0.750000
vt 0.125000 0.500000
vt 0.875000 0.500000
vt 0.625000 1.000000
vt 0.875000 0.750000
s 0
usemtl Material.004
f 14/19/8 15/20/8 13/21/8
f 16/22/9 19/23/9 15/20/9
f 20/24/10 17/25/10 19/23/10
f 18/26/11 13/27/11 17/25/11
f 19/23/12 13/28/12 15/29/12
f 16/30/13 18/26/13 20/24/13
f 14/19/8 16/22/8 15/20/8
f 16/22/9 20/24/9 19/23/9
f 20/24/10 18/26/10 17/25/10
f 18/26/11 14/31/11 13/27/11
f 19/23/12 17/25/12 13/28/12
f 16/30/13 14/32/13 18/26/13
o Cube.002
v -15.029165 0.000000 -1.530576
v -15.029165 2.000000 -1.530576
v -15.029165 0.000000 -13.882026
v -15.029165 2.000000 -13.882026
v -14.087234 0.000000 -1.530576
v -14.087234 2.000000 -1.530576
v -14.087234 0.000000 -13.882026
v -14.087234 2.000000 -13.882026
vn -1.0000 -0.0000 -0.0000
vn -0.0000 -0.0000 -1.0000
vn 1.0000 -0.0000 -0.0000
vn -0.0000 -0.0000 1.0000
vn -0.0000 -1.0000 -0.0000
vn -0.0000 1.0000 -0.0000
vt 0.625000 0.000000
vt 0.375000 0.250000
vt 0.375000 0.000000
vt 0.625000 0.250000
vt 0.375000 0.500000
vt 0.625000 0.500000
vt 0.375000 0.750000
vt 0.625000 0.750000
vt 0.375000 1.000000
vt 0.125000 0.750000
vt 0.125000 0.500000
vt 0.875000 0.500000
vt 0.875000 0.750000
vt 0.625000 1.000000
s 0
usemtl Material.003
f 22/33/14 23/34/14 21/35/14
f 24/36/15 27/37/15 23/34/15
f 28/38/16 25/39/16 27/37/16
f 26/40/17 21/41/17 25/39/17
f 27/37/18 21/42/18 23/43/18
f 24/44/19 26/40/19 28/38/19
f 22/33/14 24/36/14 23/34/14
f 24/36/15 28/38/15 27/37/15
f 24/44/19 22/45/19 26/40/19
f 28/38/16 26/40/16 25/39/16
f 26/40/17 22/46/17 21/41/17
f 27/37/18 25/39/18 21/42/18
o Cube.003
v 9.123949 0.000000 -1.530576
v 9.123949 2.000000 -1.530576
v 9.123949 0.000000 -13.882026
v 9.123949 2.000000 -13.882026
v 10.065880 0.000000 -1.530576
v 10.065880 2.000000 -1.530576
v 10.065880 0.000000 -13.882026
v 10.065880 2.000000 -13.882026
vn -1.0000 -0.0000 -0.0000
vn -0.0000 -0.0000 -1.0000
vn 1.0000 -0.0000 -0.0000
vn -0.0000 -0.0000 1.0000
vn -0.0000 -1.0000 -0.0000
vn -0.0000 1.0000 -0.0000
vt 0.625000 0.000000
vt 0.375000 0.250000
vt 0.375000 0.000000
vt 0.625000 0.250000
vt 0.375000 0.500000
vt 0.625000 0.500000
vt 0.375000 0.750000
vt 0.625000 0.750000
vt 0.375000 1.000000
vt 0.125000 0.750000
vt 0.125000 0.500000
vt 0.875000 0.500000
vt 0.875000 0.750000
vt 0.625000 1.000000
s 0
usemtl Material.001
f 30/47/20 31/48/20 29/49/20
f 32/50/21 35/51/21 31/48/21
f 36/52/22 33/53/22 35/51/22
f 34/54/23 29/55/23 33/53/23
f 35/51/24 29/56/24 31/57/24
f 32/58/25 34/54/25 36/52/25
f 30/47/20 32/50/20 31/48/20
f 32/50/21 36/52/21 35/51/21
f 36/52/22 34/54/22 33/53/22
f 35/51/24 33/53/24 29/56/24
f 32/58/25 30/59/25 34/54/25
f 34/54/23 30/60/23 29/55/23
